<?xml version="1.0" encoding="utf-8"?>
<!-- Generator: Adobe Illustrator 23.0.1, SVG Export Plug-In . SVG Version: 6.00 Build 0)  -->
<svg version="1.1" id="Layer_1" xmlns="http://www.w3.org/2000/svg" xmlns:xlink="http://www.w3.org/1999/xlink" x="0px" y="0px"
	 viewBox="0 0 437.9716 306.5857" style="enable-background:new 0 0 437.9716 306.5857;" xml:space="preserve">
<style type="text/css">
	.Drop_x0020_Shadow{fill:none;}
	.Round_x0020_Corners_x0020_2_x0020_pt{fill:#FFFFFF;stroke:#231F20;stroke-miterlimit:10;}
	.Live_x0020_Reflect_x0020_X{fill:none;}
	.Bevel_x0020_Soft{fill:url(#SVGID_1_);}
	.Dusk{fill:#FFFFFF;}
	.Foliage_GS{fill:#FFDD00;}
	.Pompadour_GS{fill-rule:evenodd;clip-rule:evenodd;fill:#44ADE2;}
	.st0{fill:#160135;}
	.st1{fill:#FFFFFF;}
	.st2{fill:#14C484;}
	.st3{fill:#3D00FF;}
	.st4{fill:#26E899;}
	.st5{fill:#8F29BF;}
	.st6{fill:#FFCF08;}
	.st7{fill:#FA006B;}
	.st8{fill:#160036;}
</style>
<linearGradient id="SVGID_1_" gradientUnits="userSpaceOnUse" x1="0" y1="0" x2="0.7071" y2="0.7071">
	<stop  offset="0" style="stop-color:#DEDFE3"/>
	<stop  offset="0.1783" style="stop-color:#DADBDF"/>
	<stop  offset="0.3611" style="stop-color:#CECFD3"/>
	<stop  offset="0.546" style="stop-color:#B9BCBF"/>
	<stop  offset="0.7324" style="stop-color:#9CA0A2"/>
	<stop  offset="0.9181" style="stop-color:#787D7E"/>
	<stop  offset="1" style="stop-color:#656B6C"/>
</linearGradient>
<g>
	<circle class="st3" cx="163.6392" cy="225.9645" r="22.1739"/>
</g>
<g>
	<circle class="st4" cx="139.2069" cy="137.1196" r="29.5412"/>
</g>
<g>
	<circle class="st5" cx="181.8944" cy="88.279" r="18.425"/>
</g>
<g>
	<circle class="st6" cx="98.8268" cy="183.2683" r="15.3484"/>
</g>
<g>
	<circle class="st7" cx="81.1365" cy="78.2801" r="19.9633"/>
</g>
<g>
	<path class="st8" d="M140.0308,170.4863c-18.46,0-33.4785-15.0186-33.4785-33.4785s15.0186-33.478,33.4785-33.478
		s33.478,15.0181,33.478,33.478S158.4907,170.4863,140.0308,170.4863z M140.0308,111.5298
		c-14.0488,0-25.4785,11.4292-25.4785,25.478s11.4297,25.4785,25.4785,25.4785s25.478-11.4297,25.478-25.4785
		S154.0796,111.5298,140.0308,111.5298z"/>
</g>
<g>
	
		<rect x="157.2347" y="104.1165" transform="matrix(0.6032 -0.7976 0.7976 0.6032 -19.848 176.34)" class="st8" width="20.1131" height="7.9999"/>
</g>
<g>
	
		<rect x="102.9325" y="88.6774" transform="matrix(0.6478 -0.7618 0.7618 0.6478 -42.3183 118.4338)" class="st8" width="8.0003" height="32.6175"/>
</g>
<g>
	
		<rect x="149.6936" y="166.0621" transform="matrix(0.9713 -0.2378 0.2378 0.9713 -39.6756 41.862)" class="st8" width="8" height="38.6741"/>
</g>
<g>
	
		<rect x="102.8814" y="162.1275" transform="matrix(0.6706 -0.7418 0.7418 0.6706 -86.1752 138.1759)" class="st8" width="19.2547" height="8.0003"/>
</g>
<g>
	<path class="st8" d="M80.6177,106.0513c-15.2598,0-27.6743-12.4146-27.6743-27.6738s12.4146-27.6738,27.6743-27.6738
		c15.2593,0,27.6738,12.4146,27.6738,27.6738S95.877,106.0513,80.6177,106.0513z M80.6177,58.7036
		c-10.8486,0-19.6743,8.8257-19.6743,19.6738s8.8257,19.6738,19.6743,19.6738c10.8481,0,19.6738-8.8257,19.6738-19.6738
		S91.4658,58.7036,80.6177,58.7036z"/>
</g>
<g>
	<path class="st8" d="M182.5522,108.7905c-11.3755,0-20.6304-9.2549-20.6304-20.6304s9.2549-20.6304,20.6304-20.6304
		s20.6304,9.2549,20.6304,20.6304S193.9277,108.7905,182.5522,108.7905z M182.5522,75.5298c-6.9644,0-12.6304,5.666-12.6304,12.6304
		s5.666,12.6304,12.6304,12.6304s12.6304-5.666,12.6304-12.6304S189.5166,75.5298,182.5522,75.5298z"/>
</g>
<g>
	<path class="st8" d="M163.4927,254.4404c-15.7676,0-28.5957-12.8276-28.5957-28.5952s12.8281-28.5957,28.5957-28.5957
		s28.5952,12.8281,28.5952,28.5957S179.2603,254.4404,163.4927,254.4404z M163.4927,205.2495
		c-11.3564,0-20.5957,9.2393-20.5957,20.5957s9.2393,20.5952,20.5957,20.5952s20.5952-9.2388,20.5952-20.5952
		S174.8491,205.2495,163.4927,205.2495z"/>
</g>
<g>
	<path class="st8" d="M98.3481,200.9468c-9.7998,0-17.7725-7.9727-17.7725-17.7725s7.9727-17.7729,17.7725-17.7729
		s17.7729,7.9731,17.7729,17.7729S108.1479,200.9468,98.3481,200.9468z M98.3481,173.4014c-5.3887,0-9.7725,4.3843-9.7725,9.7729
		s4.3838,9.7725,9.7725,9.7725s9.7729-4.3838,9.7729-9.7725S103.7368,173.4014,98.3481,173.4014z"/>
</g>
<g>
	<path class="st1" d="M164.0507,208.7648c-5.0003,0-9.4791,2.2209-12.5135,5.7264c2.6482-1.7993,5.845-2.8515,9.288-2.8515
		c2.572,0,5.0069,0.5869,7.1783,1.6338c-1.9053,1.6208-1.6553,5.4057,0.6337,8.651c2.3737,3.3652,6.034,4.8687,8.1755,3.3582
		c0.0939-0.0663,0.1777-0.1429,0.2626-0.2183c0.1934,1.012,0.2985,2.0555,0.2985,3.1239c0,4.1392-1.5232,7.9203-4.0351,10.8222
		c4.3817-2.977,7.2606-8.0005,7.2606-13.6971C180.5993,216.1739,173.1903,208.7648,164.0507,208.7648z"/>
</g>
<g>
	<path class="st1" d="M140.3024,114.1962c-6.4386,0-12.2057,2.8597-16.1129,7.3735c3.41-2.3168,7.5263-3.6717,11.9596-3.6717
		c3.3118,0,6.4471,0.7557,9.243,2.1038c-2.4534,2.0871-2.1315,6.9605,0.816,11.1393c3.0564,4.3332,7.7696,6.2692,10.527,4.3242
		c0.121-0.0853,0.2288-0.184,0.3382-0.2811c0.2491,1.3031,0.3844,2.6467,0.3844,4.0224c0,5.3298-1.9613,10.1985-5.1957,13.935
		c5.642-3.8333,9.3491-10.3018,9.3491-17.6369C161.611,123.7364,152.0708,114.1962,140.3024,114.1962z"/>
</g>
<g>
	<path class="st1" d="M182.5242,78.6181c-2.8971,0-5.4922,1.2868-7.2503,3.3178c1.5344-1.0425,3.3866-1.6521,5.3814-1.6521
		c1.4902,0,2.901,0.34,4.1591,0.9466c-1.1039,0.9391-0.9591,3.132,0.3672,5.0123c1.3753,1.9498,3.496,2.8209,4.7368,1.9457
		c0.0544-0.0384,0.1029-0.0828,0.1522-0.1265c0.1121,0.5864,0.1729,1.1909,0.1729,1.81c0,2.3982-0.8825,4.589-2.3379,6.2703
		c2.5387-1.7249,4.2068-4.6355,4.2068-7.936C192.1124,82.9108,187.8196,78.6181,182.5242,78.6181z"/>
</g>
<g>
	<path class="st1" d="M80.7668,62.1963c-4.8821,0-9.2551,2.1684-12.2178,5.5911c2.5856-1.7568,5.7069-2.7841,9.0685-2.7841
		c2.5112,0,4.8886,0.573,7.0086,1.5952c-1.8603,1.5825-1.6162,5.2779,0.6188,8.4465c2.3176,3.2857,5.8913,4.7537,7.9822,3.2789
		c0.0917-0.0647,0.1735-0.1395,0.2564-0.2131c0.1889,0.9881,0.2914,2.0069,0.2914,3.05c0,4.0414-1.4872,7.7331-3.9397,10.5664
		c4.2781-2.9066,7.089-7.8114,7.089-13.3734C96.9242,69.4302,89.6903,62.1963,80.7668,62.1963z"/>
</g>
<g>
	<path class="st1" d="M98.9595,175.3523c-2.3352,0-4.4269,1.0372-5.844,2.6743c1.2368-0.8403,2.7297-1.3317,4.3376-1.3317
		c1.2011,0,2.3383,0.2741,3.3523,0.763c-0.8898,0.757-0.7731,2.5245,0.296,4.0401c1.1085,1.5716,2.8179,2.2737,3.818,1.5683
		c0.0439-0.0309,0.083-0.0667,0.1226-0.1019c0.0903,0.4726,0.1394,0.9599,0.1394,1.4589c0,1.9331-0.7114,3.6989-1.8844,5.0541
		c2.0463-1.3903,3.3908-3.7363,3.3908-6.3967C106.6879,178.8124,103.2278,175.3523,98.9595,175.3523z"/>
</g>
<g>
	<g>
		<path class="st0" d="M197.1888,158.6582c0-0.4908,0-1.2171,0-2.179c-0.9619,0-2.4146,0-4.3581,0c0,2.9054,0,7.2537,0,13.0448
			c0.9816,0,2.4342,0,4.3581,0c0-0.4908,0-1.2171,0-2.179c0.9619,0,2.4048,0,4.3286,0c0,0.9619,0,2.4048,0,4.3287
			c0,0.6086-0.2061,1.119-0.6184,1.5312c-0.4319,0.4319-0.9423,0.6478-1.5312,0.6478c-1.9435,0-4.8391,0-8.6867,0
			c-0.6086,0-1.119-0.2159-1.5312-0.6478c-0.4319-0.4123-0.6478-0.9227-0.6478-1.5312c0-1.4527,0-3.6317,0-6.5372
			c0-1.1975,0-2.6895,0-4.4759c0-1.8257,0-3.9458,0-6.3605c0-0.5889,0.2159-1.0993,0.6478-1.5312
			c0.4123-0.4122,0.9227-0.6184,1.5312-0.6184c1.9238,0,4.8194,0,8.6867,0c0.5889,0,1.0993,0.2061,1.5312,0.6184
			c0.4122,0.4319,0.6184,0.9423,0.6184,1.5312c0,0.9816,0,2.4342,0,4.3581C200.5555,158.6582,199.1126,158.6582,197.1888,158.6582z"
			/>
	</g>
	<g>
		<path class="st0" d="M218.8909,154.3001c0,3.8673,0,9.6585,0,17.3735c0,0.6086-0.2061,1.119-0.6184,1.5312
			c-0.4319,0.4319-0.9423,0.6478-1.5312,0.6478c-1.9435,0-4.8391,0-8.6867,0c-0.6086,0-1.119-0.2159-1.5312-0.6478
			c-0.4319-0.4123-0.6478-0.9227-0.6478-1.5312c0-1.4527,0-3.6317,0-6.5372c0-1.1975,0-2.6895,0-4.4759c0-1.8257,0-3.9458,0-6.3605
			c0-0.5889,0.2159-1.0993,0.6478-1.5312c0.4122-0.4122,0.9227-0.6184,1.5312-0.6184c1.9238,0,4.8194,0,8.6867,0
			c0.5889,0,1.0993,0.2061,1.5312,0.6184C218.6848,153.2007,218.8909,153.7112,218.8909,154.3001z M210.2041,169.524
			c0.9816,0,2.4342,0,4.3581,0c0-0.1963,0-0.481,0-0.8539c0-2.7091,0-6.7727,0-12.1909c-0.9619,0-2.4146,0-4.3581,0
			c0,1.4527,0,3.6219,0,6.5077C210.2041,164.4395,210.2041,166.6186,210.2041,169.524z"/>
	</g>
	<g>
		<path class="st0" d="M244.9511,154.3001c0,4.3581,0,10.8756,0,19.5525c-0.9619,0-2.4048,0-4.3286,0c0-3.8673,0-9.6585,0-17.3735
			c-0.9619,0-2.4146,0-4.3581,0c0,3.8673,0,9.6585,0,17.3735c-0.9619,0-2.4048,0-4.3286,0c0-3.8673,0-9.6585,0-17.3735
			c-0.9619,0-2.4146,0-4.3581,0c0,3.8673,0,9.6585,0,17.3735c-0.9619,0-2.4048,0-4.3286,0c0-1.6294,0-4.0833,0-7.3616
			c0-1.3546,0-3.0428,0-5.0648c0-2.0416,0-4.417,0-7.1261c0-0.5889,0.2159-1.0993,0.6478-1.5312
			c0.4123-0.4122,0.9227-0.6184,1.5312-0.6184c1.4331,0,3.6023,0,6.5077,0c0.6086,0,1.119,0.2061,1.5312,0.6184
			c0.4319,0.4319,0.6478,0.9423,0.6478,1.5312c0-0.5889,0.2061-1.0993,0.6184-1.5312c0.4319-0.4122,0.9423-0.6184,1.5312-0.6184
			c1.4527,0,3.6317,0,6.5371,0c0.5889,0,1.0993,0.2061,1.5312,0.6184C244.745,153.2007,244.9511,153.7112,244.9511,154.3001z"/>
	</g>
	<g>
		<path class="st0" d="M271.0113,154.3001c0,4.3581,0,10.8756,0,19.5525c-0.9619,0-2.4048,0-4.3286,0c0-3.8673,0-9.6585,0-17.3735
			c-0.9619,0-2.4146,0-4.3581,0c0,3.8673,0,9.6585,0,17.3735c-0.9619,0-2.4048,0-4.3286,0c0-3.8673,0-9.6585,0-17.3735
			c-0.9619,0-2.4146,0-4.3581,0c0,3.8673,0,9.6585,0,17.3735c-0.9619,0-2.4048,0-4.3287,0c0-1.6294,0-4.0833,0-7.3616
			c0-1.3546,0-3.0428,0-5.0648c0-2.0416,0-4.417,0-7.1261c0-0.5889,0.2159-1.0993,0.6478-1.5312
			c0.4123-0.4122,0.9227-0.6184,1.5312-0.6184c1.4331,0,3.6023,0,6.5077,0c0.6086,0,1.119,0.2061,1.5312,0.6184
			c0.4319,0.4319,0.6478,0.9423,0.6478,1.5312c0-0.5889,0.2061-1.0993,0.6184-1.5312c0.4319-0.4122,0.9423-0.6184,1.5312-0.6184
			c1.4527,0,3.6317,0,6.5371,0c0.5889,0,1.0993,0.2061,1.5312,0.6184C270.8052,153.2007,271.0113,153.7112,271.0113,154.3001z"/>
	</g>
	<g>
		<path class="st0" d="M288.3848,152.1505c0,4.3385,0,10.8462,0,19.5231c0,0.6086-0.2061,1.119-0.6184,1.5312
			c-0.4319,0.4319-0.9423,0.6478-1.5312,0.6478c-1.9435,0-4.8391,0-8.6867,0c-0.6086,0-1.119-0.2159-1.5312-0.6478
			c-0.4319-0.4123-0.6478-0.9227-0.6478-1.5312c0-2.1594,0-4.8685,0-8.1273c0-3.2588,0-7.0574,0-11.3958c0.9619,0,2.4048,0,4.3286,0
			c0,3.8477,0,9.6388,0,17.3735c0.9816,0,2.4343,0,4.3581,0c0-3.8673,0-9.6585,0-17.3735
			C285.0181,152.1505,286.461,152.1505,288.3848,152.1505z"/>
	</g>
	<g>
		<path class="st0" d="M305.7583,154.3001c0,4.3581,0,10.8756,0,19.5525c-0.9619,0-2.4048,0-4.3287,0c0-3.8673,0-9.6585,0-17.3735
			c-0.9619,0-2.4146,0-4.3581,0c0,3.8673,0,9.6585,0,17.3735c-0.9619,0-2.4048,0-4.3286,0c0-2.4146,0-5.428,0-9.0401
			c0-3.6121,0-7.8328,0-12.662c0.9619,0,2.4048,0,4.3286,0c1.4527,0,3.6317,0,6.5371,0c0.589,0,1.0994,0.2061,1.5313,0.6184
			C305.5522,153.2007,305.7583,153.7112,305.7583,154.3001z"/>
	</g>
	<g>
		<path class="st0" d="M310.1164,152.1505c0.7263,0,2.1692,0,4.3286,0c0,2.7091,0,8.1371,0,16.284c0,0.903,0,2.7091,0,5.4182
			c-0.7067,0-2.1496,0-4.3286,0c0-2.4146,0-5.428,0-9.0401C310.1164,161.2004,310.1164,156.9797,310.1164,152.1505z"/>
	</g>
	<g>
		<path class="st0" d="M331.8185,156.4791c-1.9239,0-3.3667,0-4.3286,0c0,8.6966,0,14.4877,0,17.3735c-2.179,0-3.6317,0-4.3581,0
			c0-8.6769,0-14.4681,0-17.3735c-2.1594,0-3.6023,0-4.3286,0c0-1.0797,0-1.9827,0-2.7091s0-1.2662,0-1.6196
			c6.5175,0,10.856,0,13.0154,0C331.8185,154.0743,331.8185,155.5172,331.8185,156.4791z"/>
	</g>
	<g>
		<path class="st0" d="M336.1766,152.1505c0.7263,0,2.1692,0,4.3286,0c0,2.7091,0,8.1371,0,16.284c0,0.903,0,2.7091,0,5.4182
			c-0.7067,0-2.1496,0-4.3286,0c0-2.4146,0-5.428,0-9.0401C336.1766,161.2004,336.1766,156.9797,336.1766,152.1505z"/>
	</g>
	<g>
		<path class="st0" d="M349.192,156.4791c0,1.9238,0,3.3765,0,4.3581c2.9054,0,5.0844,0,6.5371,0c0,1.9238,0,3.3667,0,4.3286
			c-2.9054,0-5.0844,0-6.5371,0c0,1.9238,0,3.3765,0,4.3581c3.8673,0,6.7629,0,8.6867,0c0,1.9238,0,3.3667,0,4.3287
			c-3.8477,0-6.7433,0-8.6867,0c-1.9238,0-3.3667,0-4.3286,0c0-1.9238,0-3.3667,0-4.3287c0-0.9816,0-1.8355,0-2.5618
			s0-1.3251,0-1.7962c0-2.179,0-3.6219,0-4.3286c0-2.179,0-3.6317,0-4.3581c0-2.1594,0-3.6023,0-4.3286c2.179,0,3.6219,0,4.3286,0
			c4.3581,0,7.2537,0,8.6867,0c0,2.1594,0,3.6023,0,4.3286C354.031,156.4791,351.1355,156.4791,349.192,156.4791z"/>
	</g>
	<g>
		<path class="st0" d="M370.9236,158.6582c0-0.4908,0-1.2171,0-2.179c-0.9619,0-2.4146,0-4.3581,0c0,0.9619,0,2.4146,0,4.3581
			c1.4527,0,3.6317,0,6.5371,0c0.589,0,1.0994,0.2061,1.5312,0.6184c0.4123,0.4319,0.6184,0.9423,0.6184,1.5312
			c0,1.9435,0,4.8391,0,8.6868c0,0.6086-0.2061,1.119-0.6184,1.5312c-0.4319,0.4319-0.9423,0.6478-1.5312,0.6478
			c-1.9435,0-4.8391,0-8.6867,0c-0.6086,0-1.119-0.2159-1.5312-0.6478c-0.4319-0.4123-0.6478-0.9227-0.6478-1.5312
			c0-0.9619,0-2.4048,0-4.3287c0.9619,0,2.4048,0,4.3286,0c0,0.4711,0,1.1975,0,2.179c0.9816,0,2.4343,0,4.3581,0
			c0-0.9816,0-2.4342,0-4.3581c-1.4527,0-3.6219,0-6.5077,0c-0.6086,0-1.119-0.2061-1.5312-0.6184
			c-0.4319-0.4319-0.6478-0.9521-0.6478-1.5607c0-0.9619,0-2.1692,0-3.6219s0-3.141,0-5.0648c0-0.5889,0.2159-1.0993,0.6478-1.5312
			c0.4123-0.4122,0.9227-0.6184,1.5312-0.6184c1.9239,0,4.8194,0,8.6867,0c0.589,0,1.0994,0.2061,1.5312,0.6184
			c0.4123,0.4319,0.6184,0.9423,0.6184,1.5312c0,0.9816,0,2.4342,0,4.3581C374.2903,158.6582,372.8474,158.6582,370.9236,158.6582z"
			/>
	</g>
</g>
<g>
	<g>
		<path class="st2" d="M197.48,130.3255c0-0.4937,0-1.2246,0-2.1929c-0.9678,0-2.4297,0-4.3853,0c0,2.9238,0,7.2993,0,13.1265
			c0.9878,0,2.4492,0,4.3853,0c0-0.9878,0-2.4492,0-4.3853c-0.4937,0-1.2246,0-2.1924,0c0-0.9678,0-2.4199,0-4.356
			c1.4614,0,3.6445,0,6.5483,0c0,0.9683,0,2.4199,0,4.356c0,1.4619,0,3.6445,0,6.5479c0,0.6128-0.2075,1.126-0.6221,1.541
			c-0.4351,0.4346-0.9482,0.6519-1.541,0.6519c-1.9556,0-4.8696,0-8.7407,0c-0.6128,0-1.126-0.2173-1.541-0.6519
			c-0.4346-0.415-0.6519-0.9282-0.6519-1.541c0-1.4614,0-3.6538,0-6.5776c0-1.2046,0-2.7061,0-4.5039c0-1.8369,0-3.9707,0-6.4004
			c0-0.5923,0.2173-1.106,0.6519-1.5405c0.415-0.415,0.9282-0.6221,1.541-0.6221c1.9355,0,4.8491,0,8.7407,0
			c0.5928,0,1.106,0.207,1.541,0.6221c0.4146,0.4346,0.6221,0.9482,0.6221,1.5405c0,0.9883,0,2.4497,0,4.3857
			C200.8677,130.3255,199.4161,130.3255,197.48,130.3255z"/>
	</g>
	<g>
		<path class="st2" d="M219.3179,141.2591c0,2.1729,0,3.625,0,4.3555c-4.3657,0-7.2793,0-8.7412,0c-1.6196,0-2.7065,0-3.2593,0
			c-0.5532,0-0.9185,0-1.0962,0c0-5.4717,0-10.0249,0-13.6597c0-3.6343,0-6.3603,0-8.1777c2.1929,0,3.6445,0,4.3555,0
			c0,8.7309,0,14.5586,0,17.4819C214.4683,141.2591,217.3819,141.2591,219.3179,141.2591z"/>
	</g>
	<g>
		<path class="st2" d="M236.7999,125.9398c0,3.8921,0,9.7192,0,17.4819c0,0.6128-0.207,1.126-0.6221,1.541
			c-0.4346,0.4346-0.9482,0.6519-1.541,0.6519c-1.9561,0-4.8691,0-8.7412,0c-0.6123,0-1.126-0.2173-1.54-0.6519
			c-0.4355-0.415-0.6523-0.9282-0.6523-1.541c0-1.4614,0-3.6538,0-6.5776c0-1.2046,0-2.7061,0-4.5039c0-1.8369,0-3.9707,0-6.4004
			c0-0.5923,0.2168-1.106,0.6523-1.5405c0.4141-0.415,0.9277-0.6221,1.54-0.6221c1.9355,0,4.8496,0,8.7412,0
			c0.5928,0,1.1064,0.207,1.541,0.6221C236.5928,124.8338,236.7999,125.3475,236.7999,125.9398z M228.0586,141.2591
			c0.9873,0,2.4492,0,4.3857,0c0-0.1973,0-0.4839,0-0.8594c0-2.7261,0-6.8149,0-12.2671c-0.9688,0-2.4297,0-4.3857,0
			c0,1.4619,0,3.6445,0,6.5483C228.0586,136.1429,228.0586,138.3357,228.0586,141.2591z"/>
	</g>
	<g>
		<path class="st2" d="M252.1182,134.681c0.5928,0,1.1064,0.2178,1.541,0.6519c0.415,0.415,0.6221,0.9287,0.6221,1.541
			c0,1.4619,0,3.6445,0,6.5479c0,0.6128-0.207,1.126-0.6221,1.541c-0.4346,0.4346-0.9482,0.6519-1.541,0.6519
			c-1.4619,0-3.6543,0-6.5781,0c-0.9678,0-2.4199,0-4.3555,0c0-0.9678,0-2.4194,0-4.3555c0-0.9878,0-2.4492,0-4.3853
			c0-0.9678,0-2.4199,0-4.356c0-0.4937,0-1.106,0-1.8369c0-0.7305,0-1.5801,0-2.5483c0-0.9678,0-2.4194,0-4.3555
			c0.9678,0,2.4199,0,4.3555,0c1.4619,0,3.6543,0,6.5781,0c0.5928,0,1.1064,0.207,1.541,0.6221
			c0.415,0.4346,0.6221,0.9482,0.6221,1.5405c0,1.4624,0,3.6548,0,6.5781c0,0.5928-0.207,1.1064-0.6221,1.541
			C253.2247,134.4734,252.711,134.681,252.1182,134.681z M245.5401,132.5179c0.9873,0,2.4492,0,4.3857,0c0-0.1777,0-0.4341,0-0.7705
			c0-0.8096,0-2.0146,0-3.6147c-0.9688,0-2.4297,0-4.3857,0C245.5401,129.1009,245.5401,130.5623,245.5401,132.5179z
			 M245.5401,141.2591c0.9873,0,2.4492,0,4.3857,0c0-0.1782,0-0.4346,0-0.7705c0-0.8101,0-2.0151,0-3.6147
			c-0.9688,0-2.4297,0-4.3857,0C245.5401,137.8416,245.5401,139.3035,245.5401,141.2591z"/>
	</g>
	<g>
		<path class="st2" d="M271.7637,145.6145c-0.9678,0-2.4199,0-4.3555,0c0-1.9355,0-4.8491,0-8.7407c-0.9688,0-2.4297,0-4.3857,0
			c0,1.936,0,4.8496,0,8.7407c-0.9678,0-2.4199,0-4.3555,0c0-1.6392,0-4.1084,0-7.4077c0-1.3628,0-3.0615,0-5.0962
			c0-2.0542,0-4.4448,0-7.1709c0-0.5923,0.2168-1.106,0.6523-1.5405c0.4141-0.415,0.9277-0.6221,1.54-0.6221
			c1.9355,0,4.8496,0,8.7412,0c0.5928,0,1.1064,0.207,1.541,0.6221c0.415,0.4346,0.6221,0.9482,0.6221,1.5405
			C271.7637,130.3255,271.7637,136.8836,271.7637,145.6145z M267.4082,132.5179c0-0.1777,0-0.4341,0-0.7705
			c0-0.8096,0-2.0146,0-3.6147c-0.9688,0-2.4297,0-4.3857,0c0,0.9683,0,2.4297,0,4.3853
			C264.0098,132.5179,265.4717,132.5179,267.4082,132.5179z"/>
	</g>
	<g>
		<path class="st2" d="M289.2451,141.2591c0,2.1729,0,3.625,0,4.3555c-4.3662,0-7.2793,0-8.7412,0c-1.6201,0-2.7061,0-3.2588,0
			c-0.5537,0-0.9189,0-1.0967,0c0-5.4717,0-10.0249,0-13.6597c0-3.6343,0-6.3603,0-8.1777c2.1924,0,3.6445,0,4.3555,0
			c0,8.7309,0,14.5586,0,17.4819C284.3955,141.2591,287.3086,141.2591,289.2451,141.2591z"/>
	</g>
</g>
</svg>
